<svg width="61" height="50" viewBox="0 0 61 50" fill="none" xmlns="http://www.w3.org/2000/svg">
<path d="M0.75 22.197C0.75 14.7599 0.75 11.0414 2.19735 8.2008C3.47048 5.70215 5.50195 3.67068 8.0006 2.39755C10.8412 0.950195 14.5597 0.950195 21.9968 0.950195H24.9809H27.8198C35.2569 0.950195 38.9755 0.950195 41.8161 2.39755C44.3147 3.67068 46.3462 5.70215 47.6193 8.2008C49.0667 11.0414 49.0667 14.7599 49.0667 22.197V27.8034C49.0667 35.2405 49.0667 38.959 47.6193 41.7996C46.3462 44.2982 44.3147 46.3297 41.8161 47.6028C38.9755 49.0502 35.2569 49.0502 27.8198 49.0502H21.9968C14.5597 49.0502 10.8412 49.0502 8.0006 47.6028C5.50195 46.3297 3.47048 44.2982 2.19735 41.7996C0.75 38.959 0.75 35.2405 0.75 27.8034V22.197Z" fill="#F8F8FA"/>
<path d="M0.75 22.197C0.75 14.7599 0.75 11.0414 2.19735 8.2008C3.47048 5.70215 5.50195 3.67068 8.0006 2.39755C10.8412 0.950195 14.5597 0.950195 21.9968 0.950195H24.9809H27.8198C35.2569 0.950195 38.9755 0.950195 41.8161 2.39755C44.3147 3.67068 46.3462 5.70215 47.6193 8.2008C49.0667 11.0414 49.0667 14.7599 49.0667 22.197V27.8034C49.0667 35.2405 49.0667 38.959 47.6193 41.7996C46.3462 44.2982 44.3147 46.3297 41.8161 47.6028C38.9755 49.0502 35.2569 49.0502 27.8198 49.0502H21.9968C14.5597 49.0502 10.8412 49.0502 8.0006 47.6028C5.50195 46.3297 3.47048 44.2982 2.19735 41.7996C0.75 38.959 0.75 35.2405 0.75 27.8034V22.197Z" fill="url(#paint0_linear_1459_28732)"/>
<path d="M57.95 16.2988C57.95 16.2988 50.2044 32.7593 39.4121 29.8804C28.6199 27.0016 21.1314 32.3203 21.1314 32.3203" stroke="#101840" stroke-width="5.53303" stroke-linecap="round" stroke-linejoin="round"/>
<path opacity="0.4" d="M21.1313 32.3191C21.1313 32.3191 28.7015 16.7746 39.4937 19.6534C50.286 22.5322 57.9499 16.2977 57.9499 16.2977" stroke="#101840" stroke-width="5.53303" stroke-linecap="round" stroke-linejoin="round"/>
<defs>
<linearGradient id="paint0_linear_1459_28732" x1="40.9997" y1="5.35691" x2="6.22621" y2="42.5355" gradientUnits="userSpaceOnUse">
<stop stop-color="#31B16C"/>
<stop offset="1" stop-color="#67D89C"/>
</linearGradient>
</defs>
</svg>
